<svg xmlns="http://www.w3.org/2000/svg" xmlns:xlink="http://www.w3.org/1999/xlink" width="1366" zoomAndPan="magnify" viewBox="0 0 1024.5 576" height="768" preserveAspectRatio="xMidYMid meet" version="1.0"><defs><g/><clipPath id="0946be841d"><path d="M 0 0.140625 L 1024 0.140625 L 1024 575.859375 L 0 575.859375 Z M 0 0.140625 " clip-rule="nonzero"/></clipPath><clipPath id="51456a31bd"><path d="M 254 411 L 490.957031 411 L 490.957031 471.085938 L 254 471.085938 Z M 254 411 " clip-rule="nonzero"/></clipPath><clipPath id="985cbb0270"><rect x="0" width="237" y="0" height="61"/></clipPath><clipPath id="cb514e08e3"><path d="M 191 0.195312 L 316 0.195312 L 316 438 L 191 438 Z M 191 0.195312 " clip-rule="nonzero"/></clipPath><clipPath id="dfeac19258"><path d="M 0.398438 0.195312 L 272 0.195312 L 272 394 L 0.398438 394 Z M 0.398438 0.195312 " clip-rule="nonzero"/></clipPath><clipPath id="9690fd2588"><path d="M 232 0.195312 L 450 0.195312 L 450 291 L 232 291 Z M 232 0.195312 " clip-rule="nonzero"/></clipPath><clipPath id="05d3f662b0"><path d="M 235 141 L 490.957031 141 L 490.957031 438 L 235 438 Z M 235 141 " clip-rule="nonzero"/></clipPath><clipPath id="39151110db"><rect x="0" width="491" y="0" height="472"/></clipPath></defs><g clip-path="url(#0946be841d)"><path fill="#ffffff" d="M 0 0.140625 L 1024 0.140625 L 1024 575.859375 L 0 575.859375 Z M 0 0.140625 " fill-opacity="1" fill-rule="nonzero"/><path fill="#2b1e17" d="M 0 0.140625 L 1024 0.140625 L 1024 575.859375 L 0 575.859375 Z M 0 0.140625 " fill-opacity="1" fill-rule="nonzero"/></g><g transform="matrix(1, 0, 0, 1, 251, 52)"><g clip-path="url(#39151110db)"><g clip-path="url(#51456a31bd)"><g transform="matrix(1, 0, 0, 1, 254, 411)"><g clip-path="url(#985cbb0270)"><g fill="#b8a892" fill-opacity="1"><g transform="translate(1.354363, 45.147252)"><g><path d="M 40.40625 -29.5625 L 31.84375 0 L 27.515625 0 L 20.65625 -23.796875 L 13.53125 0 L 9.25 0.046875 L 0.96875 -29.5625 L 5.09375 -29.5625 L 11.53125 -4.5 L 18.65625 -29.5625 L 22.984375 -29.5625 L 29.765625 -4.578125 L 36.25 -29.5625 Z M 40.40625 -29.5625 "/></g></g></g><g fill="#b8a892" fill-opacity="1"><g transform="translate(67.094281, 45.147252)"><g><path d="M 16.671875 0.296875 C 13.921875 0.296875 11.414062 -0.34375 9.15625 -1.625 C 6.894531 -2.914062 5.109375 -4.710938 3.796875 -7.015625 C 2.484375 -9.316406 1.828125 -11.910156 1.828125 -14.796875 C 1.828125 -17.679688 2.484375 -20.273438 3.796875 -22.578125 C 5.109375 -24.878906 6.894531 -26.671875 9.15625 -27.953125 C 11.414062 -29.242188 13.921875 -29.890625 16.671875 -29.890625 C 19.441406 -29.890625 21.957031 -29.242188 24.21875 -27.953125 C 26.476562 -26.671875 28.257812 -24.882812 29.5625 -22.59375 C 30.863281 -20.3125 31.515625 -17.710938 31.515625 -14.796875 C 31.515625 -11.890625 30.863281 -9.289062 29.5625 -7 C 28.257812 -4.707031 26.476562 -2.914062 24.21875 -1.625 C 21.957031 -0.34375 19.441406 0.296875 16.671875 0.296875 Z M 16.671875 -3.046875 C 18.734375 -3.046875 20.585938 -3.523438 22.234375 -4.484375 C 23.890625 -5.453125 25.191406 -6.828125 26.140625 -8.609375 C 27.085938 -10.390625 27.5625 -12.453125 27.5625 -14.796875 C 27.5625 -17.171875 27.085938 -19.238281 26.140625 -21 C 25.191406 -22.769531 23.894531 -24.132812 22.25 -25.09375 C 20.613281 -26.0625 18.753906 -26.546875 16.671875 -26.546875 C 14.578125 -26.546875 12.707031 -26.0625 11.0625 -25.09375 C 9.425781 -24.132812 8.132812 -22.769531 7.1875 -21 C 6.238281 -19.238281 5.765625 -17.171875 5.765625 -14.796875 C 5.765625 -12.453125 6.238281 -10.390625 7.1875 -8.609375 C 8.132812 -6.828125 9.429688 -5.453125 11.078125 -4.484375 C 12.734375 -3.523438 14.597656 -3.046875 16.671875 -3.046875 Z M 16.671875 -3.046875 "/></g></g></g><g fill="#b8a892" fill-opacity="1"><g transform="translate(124.776109, 45.147252)"><g><path d="M 16.671875 0.296875 C 13.921875 0.296875 11.414062 -0.34375 9.15625 -1.625 C 6.894531 -2.914062 5.109375 -4.710938 3.796875 -7.015625 C 2.484375 -9.316406 1.828125 -11.910156 1.828125 -14.796875 C 1.828125 -17.679688 2.484375 -20.273438 3.796875 -22.578125 C 5.109375 -24.878906 6.894531 -26.671875 9.15625 -27.953125 C 11.414062 -29.242188 13.921875 -29.890625 16.671875 -29.890625 C 19.441406 -29.890625 21.957031 -29.242188 24.21875 -27.953125 C 26.476562 -26.671875 28.257812 -24.882812 29.5625 -22.59375 C 30.863281 -20.3125 31.515625 -17.710938 31.515625 -14.796875 C 31.515625 -11.890625 30.863281 -9.289062 29.5625 -7 C 28.257812 -4.707031 26.476562 -2.914062 24.21875 -1.625 C 21.957031 -0.34375 19.441406 0.296875 16.671875 0.296875 Z M 16.671875 -3.046875 C 18.734375 -3.046875 20.585938 -3.523438 22.234375 -4.484375 C 23.890625 -5.453125 25.191406 -6.828125 26.140625 -8.609375 C 27.085938 -10.390625 27.5625 -12.453125 27.5625 -14.796875 C 27.5625 -17.171875 27.085938 -19.238281 26.140625 -21 C 25.191406 -22.769531 23.894531 -24.132812 22.25 -25.09375 C 20.613281 -26.0625 18.753906 -26.546875 16.671875 -26.546875 C 14.578125 -26.546875 12.707031 -26.0625 11.0625 -25.09375 C 9.425781 -24.132812 8.132812 -22.769531 7.1875 -21 C 6.238281 -19.238281 5.765625 -17.171875 5.765625 -14.796875 C 5.765625 -12.453125 6.238281 -10.390625 7.1875 -8.609375 C 8.132812 -6.828125 9.429688 -5.453125 11.078125 -4.484375 C 12.734375 -3.523438 14.597656 -3.046875 16.671875 -3.046875 Z M 16.671875 -3.046875 "/></g></g></g><g fill="#b8a892" fill-opacity="1"><g transform="translate(182.457936, 45.147252)"><g><path d="M 12.46875 -29.5625 C 15.6875 -29.5625 18.476562 -28.957031 20.84375 -27.75 C 23.207031 -26.550781 25.015625 -24.832031 26.265625 -22.59375 C 27.523438 -20.363281 28.15625 -17.738281 28.15625 -14.71875 C 28.15625 -11.6875 27.523438 -9.0625 26.265625 -6.84375 C 25.015625 -4.625 23.207031 -2.925781 20.84375 -1.75 C 18.476562 -0.582031 15.6875 0 12.46875 0 L 3.265625 0 L 3.265625 -29.5625 Z M 12.46875 -3.1875 C 16.28125 -3.1875 19.191406 -4.195312 21.203125 -6.21875 C 23.210938 -8.238281 24.21875 -11.070312 24.21875 -14.71875 C 24.21875 -18.394531 23.207031 -21.265625 21.1875 -23.328125 C 19.164062 -25.390625 16.257812 -26.421875 12.46875 -26.421875 L 7.125 -26.421875 L 7.125 -3.1875 Z M 12.46875 -3.1875 "/></g></g></g></g></g></g><g clip-path="url(#cb514e08e3)"><path stroke-linecap="butt" transform="matrix(0.000227421, -0.288385, 0.288385, 0.000227421, 248.042791, 375.178337)" fill="none" stroke-linejoin="miter" d="M -0.00324048 19.004625 L 1280.010738 18.997552 " stroke="#b8a892" stroke-width="38" stroke-opacity="1" stroke-miterlimit="4"/></g><g clip-path="url(#dfeac19258)"><path stroke-linecap="butt" transform="matrix(0.161386, -0.238999, 0.238999, 0.161386, 1.750269, 371.388497)" fill="none" stroke-linejoin="miter" d="M 0.00180204 6.502649 L 1527.87704 6.506878 " stroke="#b8a892" stroke-width="13" stroke-opacity="1" stroke-miterlimit="4"/></g><g clip-path="url(#9690fd2588)"><path stroke-linecap="butt" transform="matrix(0.159635, -0.240172, 0.240172, 0.159635, 252.252984, 267.891698)" fill="none" stroke-linejoin="miter" d="M -0.00412566 6.49607 L 1091.634351 6.505218 " stroke="#b8a892" stroke-width="13" stroke-opacity="1" stroke-miterlimit="4"/></g><g clip-path="url(#05d3f662b0)"><path stroke-linecap="butt" transform="matrix(0.203919, 0.203919, -0.203919, 0.203919, 300.948103, 199.253001)" fill="none" stroke-linejoin="miter" d="M 0.00495575 19.002127 L 843.745358 19.002127 " stroke="#b8a892" stroke-width="38" stroke-opacity="1" stroke-miterlimit="4"/></g><path stroke-linecap="butt" transform="matrix(0.288385, 0.000217105, -0.000217105, 0.288385, 74.490869, 267.488829)" fill="none" stroke-linejoin="miter" d="M -0.00521156 4.996307 L 604.208422 5.001975 " stroke="#b8a892" stroke-width="10" stroke-opacity="1" stroke-miterlimit="4"/></g></g></svg>